<svg xmlns="http://www.w3.org/2000/svg" height="20" viewBox="0 0 20 20" width="20"><path d="M6 18V18.5C6 18.9167 5.85417 19.2708 5.5625 19.5625C5.27083 19.8542 4.91667 20 4.5 20C4.08333 20 3.72917 19.8542 3.4375 19.5625C3.14583 19.2708 3 18.9167 3 18.5V16.95C2.7 16.6167 2.45833 16.2458 2.275 15.8375C2.09167 15.4292 2 14.9833 2 14.5V5C2 3.61667 2.64167 2.60417 3.925 1.9625C5.20833 1.32083 7.23333 1 10 1C12.8667 1 14.9167 1.30833 16.15 1.925C17.3833 2.54167 18 3.56667 18 5V14.5C18 14.9833 17.9083 15.4292 17.725 15.8375C17.5417 16.2458 17.3 16.6167 17 16.95V18.5C17 18.9167 16.8542 19.2708 16.5625 19.5625C16.2708 19.8542 15.9167 20 15.5 20C15.0833 20 14.7292 19.8542 14.4375 19.5625C14.1458 19.2708 14 18.9167 14 18.5V18H6ZM4 9H16V6H4V9ZM6.5 15C6.91667 15 7.27083 14.8542 7.5625 14.5625C7.85417 14.2708 8 13.9167 8 13.5C8 13.0833 7.85417 12.7292 7.5625 12.4375C7.27083 12.1458 6.91667 12 6.5 12C6.08333 12 5.72917 12.1458 5.4375 12.4375C5.14583 12.7292 5 13.0833 5 13.5C5 13.9167 5.14583 14.2708 5.4375 14.5625C5.72917 14.8542 6.08333 15 6.5 15ZM13.5 15C13.9167 15 14.2708 14.8542 14.5625 14.5625C14.8542 14.2708 15 13.9167 15 13.5C15 13.0833 14.8542 12.7292 14.5625 12.4375C14.2708 12.1458 13.9167 12 13.5 12C13.0833 12 12.7292 12.1458 12.4375 12.4375C12.1458 12.7292 12 13.0833 12 13.5C12 13.9167 12.1458 14.2708 12.4375 14.5625C12.7292 14.8542 13.0833 15 13.5 15Z" fill="#101418"/></svg>
