<svg xmlns="http://www.w3.org/2000/svg" height="21" viewBox="0 0 21 21" width="21"><path d="M7.675 20.025C7.34167 20.1083 7.06267 20.0627 6.838 19.888C6.61267 19.7127 6.5 19.4583 6.5 19.125C6.5 18.975 6.546 18.8167 6.638 18.65C6.72933 18.4833 6.83333 18.35 6.95 18.25L8.5 17.075V11.825L1.475 13.9C1.075 14.0167 0.729333 13.9707 0.438 13.762C0.146 13.554 0 13.2333 0 12.8C0 12.5833 0.0626667 12.3707 0.188 12.162C0.312667 11.954 0.466667 11.8 0.65 11.7L8.5 7.075V1.65C8.5 1.18333 8.65833 0.791667 8.975 0.475C9.29167 0.158333 9.68333 0 10.15 0C10.6167 0 11.0083 0.158333 11.325 0.475C11.6417 0.791667 11.8 1.18333 11.8 1.65V7.075L19.65 11.7C19.8333 11.8 19.9877 11.9583 20.113 12.175C20.2377 12.3917 20.3 12.6083 20.3 12.825C20.3 13.2417 20.1543 13.554 19.863 13.762C19.571 13.9707 19.225 14.0167 18.825 13.9L11.8 11.825V17.075L13.35 18.25C13.4667 18.35 13.5707 18.4833 13.662 18.65C13.754 18.8167 13.8 18.975 13.8 19.125C13.8 19.4583 13.6873 19.7127 13.462 19.888C13.2373 20.0627 12.9583 20.1083 12.625 20.025L10.15 19.3L7.675 20.025Z" fill="#101418"/></svg>
