<svg xmlns="http://www.w3.org/2000/svg" height="20" viewBox="0 0 20 20" width="20"><path d="M17.2 18C16.129 18 15.058 17.685 14.077 17.118C13.78 16.947 13.42 16.947 13.114 17.118C12.1689 17.6744 11.0922 17.9678 9.9955 17.9678C8.89881 17.9678 7.82208 17.6744 6.877 17.118C6.58 16.947 6.22 16.947 5.914 17.118C4.942 17.685 3.871 18 2.8 18H1.9C1.405 18 1 18.405 1 18.9C1 19.395 1.405 19.8 1.9 19.8H2.8C4.042 19.8 5.266 19.485 6.4 18.909C7.51368 19.4814 8.74782 19.78 10 19.78C11.2522 19.78 12.4863 19.4814 13.6 18.909C14.734 19.494 15.958 19.8 17.2 19.8H18.1C18.595 19.8 19 19.395 19 18.9C19 18.405 18.595 18 18.1 18H17.2ZM2.755 16.2H2.8C3.943 16.2 4.978 15.705 5.797 15.003C6.148 14.697 6.652 14.697 7.003 15.003C7.822 15.705 8.857 16.2 10 16.2C11.143 16.2 12.178 15.705 12.997 15.003C13.348 14.697 13.852 14.697 14.203 15.003C15.022 15.705 16.057 16.2 17.2 16.2H17.245L18.955 10.188C19.054 9.855 18.991 9.234 18.361 9.036L17.2 8.658V4.5C17.2 3.51 16.39 2.7 15.4 2.7H12.7V0.9C12.7 0.405 12.295 0 11.8 0H8.2C7.705 0 7.3 0.405 7.3 0.9V2.7H4.6C3.61 2.7 2.8 3.51 2.8 4.5V8.658L1.639 9.036C1.072 9.207 0.91 9.792 1.045 10.188L2.755 16.2Z" fill="#101418"/></svg>
