<svg xmlns="http://www.w3.org/2000/svg" height="20" viewBox="0 0 20 20" width="20"><path d="M5.5 17.4068C4.51267 17.3509 3.6825 16.9576 3.0095 16.2268C2.3365 15.4959 2 14.6249 2 13.6138V4.2035C2 2.75233 2.65958 1.689 3.97875 1.0135C5.29792 0.337833 7.37217 0 10.2015 0C13.1332 0 15.2336 0.325333 16.5027 0.975999C17.7719 1.6265 18.4065 2.70233 18.4065 4.2035V13.6138C18.4065 14.6249 18.07 15.4959 17.397 16.2268C16.724 16.9576 15.8938 17.3509 14.9065 17.4068L16.5015 18.4638C16.7335 18.6169 16.8102 18.8303 16.7315 19.104C16.6528 19.3775 16.4726 19.5142 16.1907 19.5142H4.21575C3.93392 19.5142 3.75367 19.3775 3.675 19.104C3.59633 18.8303 3.673 18.6169 3.905 18.4638L5.5 17.4068ZM4.275 8.275H9.20325V5.275H4.275V8.275ZM11.2032 8.275H16.1315V5.275H11.2032V8.275ZM6.739 14.2393C7.15567 14.2393 7.50983 14.0934 7.8015 13.8018C8.09317 13.5101 8.239 13.1559 8.239 12.7393C8.239 12.3226 8.09317 11.9684 7.8015 11.6768C7.50983 11.3851 7.15567 11.2393 6.739 11.2393C6.32233 11.2393 5.96817 11.3851 5.6765 11.6768C5.38483 11.9684 5.239 12.3226 5.239 12.7393C5.239 13.1559 5.38483 13.5101 5.6765 13.8018C5.96817 14.0934 6.32233 14.2393 6.739 14.2393ZM13.6675 14.2393C14.0842 14.2393 14.4383 14.0934 14.73 13.8018C15.0217 13.5101 15.1675 13.1559 15.1675 12.7393C15.1675 12.3226 15.0217 11.9684 14.73 11.6768C14.4383 11.3851 14.0842 11.2393 13.6675 11.2393C13.2508 11.2393 12.8967 11.3851 12.605 11.6768C12.3133 11.9684 12.1675 12.3226 12.1675 12.7393C12.1675 13.1559 12.3133 13.5101 12.605 13.8018C12.8967 14.0934 13.2508 14.2393 13.6675 14.2393Z" fill="#101418"/></svg>
